<svg width="18" height="18" viewBox="0 0 18 18" fill="none" xmlns="http://www.w3.org/2000/svg">
<path d="M9 1.5C4.8645 1.5 1.5 4.8645 1.5 9C1.5 13.1355 4.8645 16.5 9 16.5C13.1355 16.5 16.5 13.1355 16.5 9C16.5 4.8645 13.1355 1.5 9 1.5ZM3 9C3 7.6155 3.4755 6.3435 4.266 5.32725L12.6727 13.734C11.6243 14.5544 10.3313 15.0001 9 15C5.69175 15 3 12.3082 3 9ZM13.734 12.6727L5.32725 4.266C6.37579 3.44572 7.66873 3.00004 9 3C12.3082 3 15 5.69175 15 9C14.9996 10.3312 14.554 11.624 13.734 12.6727Z" fill="#FF4F4F"/>
</svg>
