<svg width="18" height="18" viewBox="0 0 18 18" fill="none" xmlns="http://www.w3.org/2000/svg">
<path d="M9 2.25C9.88642 2.25 10.7642 2.42459 11.5831 2.76381C12.4021 3.10303 13.1462 3.60023 13.773 4.22703C14.3998 4.85382 14.897 5.59794 15.2362 6.41689C15.5754 7.23583 15.75 8.11358 15.75 9C15.75 9.88642 15.5754 10.7642 15.2362 11.5831C14.897 12.4021 14.3998 13.1462 13.773 13.773C13.1462 14.3998 12.4021 14.897 11.5831 15.2362C10.7642 15.5754 9.88642 15.75 9 15.75C7.20979 15.75 5.4929 15.0388 4.22703 13.773C2.96116 12.5071 2.25 10.7902 2.25 9C2.25 7.20979 2.96116 5.4929 4.22703 4.22703C5.4929 2.96116 7.20979 2.25 9 2.25V2.25ZM9 3.375C7.50816 3.375 6.07742 3.96763 5.02252 5.02252C3.96763 6.07742 3.375 7.50816 3.375 9C3.375 10.4918 3.96763 11.9226 5.02252 12.9775C6.07742 14.0324 7.50816 14.625 9 14.625C10.4918 14.625 11.9226 14.0324 12.9775 12.9775C14.0324 11.9226 14.625 10.4918 14.625 9C14.625 7.50816 14.0324 6.07742 12.9775 5.02252C11.9226 3.96763 10.4918 3.375 9 3.375V3.375ZM6.1875 8.4375H11.8147C11.9553 8.43724 12.0909 8.48962 12.1948 8.58432C12.2986 8.67902 12.3633 8.80918 12.376 8.94917C12.3887 9.08916 12.3485 9.22884 12.2634 9.34069C12.1782 9.45254 12.0543 9.52846 11.916 9.5535L11.8147 9.5625H6.1875C6.04694 9.56276 5.91137 9.51038 5.80749 9.41568C5.70362 9.32098 5.63897 9.19082 5.62627 9.05083C5.61356 8.91084 5.65374 8.77116 5.73887 8.65931C5.82401 8.54746 5.94793 8.47154 6.08625 8.4465L6.1875 8.4375H11.8147H6.1875Z" fill="#FF4F4F"/>
</svg>
