<svg width="18" height="18" viewBox="0 0 18 18" fill="none" xmlns="http://www.w3.org/2000/svg">
<path d="M9 1.5C4.8645 1.5 1.5 4.8645 1.5 9C1.5 13.1355 4.8645 16.5 9 16.5C13.1355 16.5 16.5 13.1355 16.5 9C16.5 4.8645 13.1355 1.5 9 1.5ZM9 15C5.69175 15 3 12.3082 3 9C3 5.69175 5.69175 3 9 3C12.3082 3 15 5.69175 15 9C15 12.3082 12.3082 15 9 15Z" fill="#FF4F4F"/>
<path d="M8.03023 9.21976L7.06048 8.25001L8.03023 7.28026L6.96973 6.21976L5.99998 7.18951L5.03023 6.21976L3.96973 7.28026L4.93948 8.25001L3.96973 9.21976L5.03023 10.2803L5.99998 9.31051L6.96973 10.2803L8.03023 9.21976ZM12.9697 6.21976L12 7.18951L11.0302 6.21976L9.96973 7.28026L10.9395 8.25001L9.96973 9.21976L11.0302 10.2803L12 9.31051L12.9697 10.2803L14.0302 9.21976L13.0605 8.25001L14.0302 7.28026L12.9697 6.21976ZM7.49998 12H10.5V13.5H7.49998V12Z" fill="#FF4F4F"/>
</svg>
