<svg width="24" height="24" viewBox="0 0 24 24" fill="none" xmlns="http://www.w3.org/2000/svg">
<path d="M11.219 3.37501L8 7.39901L4.781 3.37501C4.65099 3.21429 4.47444 3.09772 4.27558 3.04128C4.07671 2.98483 3.86525 2.99128 3.6702 3.05973C3.47514 3.12818 3.30602 3.25529 3.18604 3.42363C3.06605 3.59197 3.00107 3.79329 3 4.00001V19C3 20.103 3.897 21 5 21H19C20.103 21 21 20.103 21 19V4.00001C20.9989 3.79329 20.9339 3.59197 20.814 3.42363C20.694 3.25529 20.5249 3.12818 20.3298 3.05973C20.1347 2.99128 19.9233 2.98483 19.7244 3.04128C19.5256 3.09772 19.349 3.21429 19.219 3.37501L16 7.39901L12.781 3.37501C12.4 2.90101 11.6 2.90101 11.219 3.37501V3.37501ZM5 19V17H19.001V19H5ZM15.219 9.62501C15.6 10.1 16.401 10.1 16.782 9.62501L19 6.85101L19.001 15H5V6.85101L7.219 9.62501C7.6 10.1 8.401 10.1 8.782 9.62501L12 5.60101L15.219 9.62501Z" fill="#FF9A03"/>
</svg>
