<svg width="18" height="18" viewBox="0 0 18 18" fill="none" xmlns="http://www.w3.org/2000/svg">
<path d="M3.75244 15C3.75244 15.8273 4.42519 16.5 5.25244 16.5H12.7524C13.5797 16.5 14.2524 15.8273 14.2524 15V6H15.7524V4.5H12.7524V3C12.7524 2.17275 12.0797 1.5 11.2524 1.5H6.75244C5.92519 1.5 5.25244 2.17275 5.25244 3V4.5H2.25244V6H3.75244V15ZM6.75244 3H11.2524V4.5H6.75244V3ZM6.00244 6H12.7524L12.7532 15H5.25244V6H6.00244Z" fill="#FF4F4F"/>
<path d="M6.75244 7.5H8.25244V13.5H6.75244V7.5ZM9.75244 7.5H11.2524V13.5H9.75244V7.5Z" fill="#FF4F4F"/>
</svg>
