<svg width="18" height="18" viewBox="0 0 18 18" fill="none" xmlns="http://www.w3.org/2000/svg">
<path d="M8.9998 14.25C9.7093 14.25 10.3573 14.1728 10.9483 14.0393L9.63055 12.7215C9.4258 12.7373 9.21805 12.75 8.9998 12.75C4.98655 12.75 3.4318 9.86551 3.0553 9.00001C3.33801 8.36911 3.71984 7.78751 4.1863 7.27726L3.1378 6.22876C1.9843 7.47901 1.54705 8.73826 1.5388 8.76301C1.48707 8.91703 1.48707 9.08374 1.5388 9.23776C1.55455 9.28726 3.27505 14.25 8.9998 14.25ZM8.9998 3.75001C7.62205 3.75001 6.4903 4.04701 5.5468 4.48576L2.78005 1.71976L1.71955 2.78026L15.2196 16.2803L16.2801 15.2198L13.7908 12.7305C15.7513 11.2673 16.4511 9.26926 16.4616 9.23776C16.5133 9.08374 16.5133 8.91703 16.4616 8.76301C16.4451 8.71276 14.7246 3.75001 8.9998 3.75001ZM12.7288 11.6685L11.0188 9.95851C11.1613 9.66601 11.2498 9.34426 11.2498 9.00001C11.2498 7.76926 10.2306 6.75001 8.9998 6.75001C8.65555 6.75001 8.3338 6.83851 8.04205 6.98176L6.68605 5.62576C7.43044 5.37032 8.21283 5.24326 8.9998 5.25001C13.0131 5.25001 14.5678 8.13451 14.9443 9.00001C14.7178 9.51901 14.0698 10.7565 12.7288 11.6685Z" fill="#FF4F4F"/>
</svg>
