<svg width="237" height="47" viewBox="0 0 237 47" fill="none" xmlns="http://www.w3.org/2000/svg">
<path d="M0.170455 46.8182H6.34091V32.875H6.59659C7.56818 34.7841 9.59659 37.4602 14.0966 37.4602C20.267 37.4602 24.8864 32.5682 24.8864 23.9432C24.8864 15.2159 20.1307 10.4773 14.0795 10.4773C9.46023 10.4773 7.53409 13.2557 6.59659 15.1477H6.23864V10.8182H0.170455V46.8182ZM6.22159 23.9091C6.22159 18.8295 8.40341 15.5398 12.375 15.5398C16.483 15.5398 18.5966 19.0341 18.5966 23.9091C18.5966 28.8182 16.4489 32.3977 12.375 32.3977C8.4375 32.3977 6.22159 28.9886 6.22159 23.9091ZM30.1705 37H36.3409V21.608C36.3409 18.2841 38.8466 15.9318 42.2386 15.9318C43.2784 15.9318 44.5739 16.1193 45.1023 16.2898V10.6136C44.5398 10.5114 43.5682 10.4432 42.8864 10.4432C39.8864 10.4432 37.3807 12.1477 36.4261 15.1818H36.1534V10.8182H30.1705V37ZM59.544 37.5114C67.2145 37.5114 72.0895 32.108 72.0895 24.0114C72.0895 15.8977 67.2145 10.4773 59.544 10.4773C51.8736 10.4773 46.9986 15.8977 46.9986 24.0114C46.9986 32.108 51.8736 37.5114 59.544 37.5114ZM59.5781 32.5682C55.3338 32.5682 53.2543 28.7841 53.2543 23.9943C53.2543 19.2045 55.3338 15.3693 59.5781 15.3693C63.7543 15.3693 65.8338 19.2045 65.8338 23.9943C65.8338 28.7841 63.7543 32.5682 59.5781 32.5682ZM77.3267 10.8182V38.4148C77.3267 40.6136 76.3892 41.7898 74.0199 41.7898C73.7131 41.7898 73.4744 41.7727 73.1335 41.7557V46.7841C73.5767 46.8182 73.9517 46.8182 74.3949 46.8182C80.1733 46.8182 83.4972 44.1591 83.4972 38.5V10.8182H77.3267ZM80.3949 7.10227C82.3551 7.10227 83.9574 5.60227 83.9574 3.76136C83.9574 1.90341 82.3551 0.403408 80.3949 0.403408C78.4176 0.403408 76.8153 1.90341 76.8153 3.76136C76.8153 5.60227 78.4176 7.10227 80.3949 7.10227ZM101.433 37.5114C107.536 37.5114 111.729 34.5284 112.82 29.9773L107.058 29.3295C106.223 31.5455 104.178 32.7045 101.518 32.7045C97.5298 32.7045 94.8878 30.0795 94.8366 25.5966H113.075V23.7045C113.075 14.517 107.553 10.4773 101.109 10.4773C93.6094 10.4773 88.7173 15.983 88.7173 24.0625C88.7173 32.2784 93.5412 37.5114 101.433 37.5114ZM94.8537 21.4375C95.0412 18.0966 97.5128 15.2841 101.195 15.2841C104.74 15.2841 107.126 17.875 107.161 21.4375H94.8537ZM129.716 37.5114C136.295 37.5114 140.489 33.608 140.932 28.0511H135.034C134.506 30.8636 132.477 32.483 129.767 32.483C125.915 32.483 123.426 29.2614 123.426 23.9091C123.426 18.625 125.966 15.4545 129.767 15.4545C132.733 15.4545 134.557 17.3636 135.034 19.8864H140.932C140.506 14.2102 136.074 10.4773 129.682 10.4773C122.011 10.4773 117.17 16.017 117.17 24.0114C117.17 31.9375 121.892 37.5114 129.716 37.5114ZM159.072 10.8182H153.908V4.54545H147.737V10.8182H144.021V15.5909H147.737V30.1477C147.703 35.0739 151.283 37.4943 155.919 37.358C157.675 37.3068 158.885 36.9659 159.55 36.7443L158.51 31.9205C158.169 32.0057 157.47 32.1591 156.703 32.1591C155.152 32.1591 153.908 31.6136 153.908 29.125V15.5909H159.072V10.8182ZM190.577 44.4148V39.6932C186.571 39.6932 185.616 38.0568 185.616 34.5114V28.9205C185.616 26.2614 184.56 24.0114 179.957 23.0909V22.4432C184.56 21.5227 185.616 19.2557 185.616 16.5966V11.0057C185.616 7.47727 186.571 5.84091 190.577 5.84091V1.10227C183.759 1.10227 179.753 2.82386 179.753 10.5114V14.858C179.753 18.4375 178.423 19.9034 174.554 19.9034V25.6307C178.423 25.6307 179.753 27.0966 179.753 30.6761V35.0057C179.753 42.6932 183.759 44.4148 190.577 44.4148ZM200.075 10.8182H193.53L201.303 23.9091L193.325 37H199.871L205.359 27.5739L210.899 37H217.393L209.365 23.9091L217.257 10.8182H210.729L205.359 20.483L200.075 10.8182ZM220.138 1.11932V5.84091C224.143 5.84091 225.098 7.47727 225.098 11.0227V16.6136C225.098 19.2727 226.155 21.5227 230.757 22.4432V23.0909C226.155 24.0114 225.098 26.2784 225.098 28.9375V34.5284C225.098 38.0568 224.143 39.6932 220.138 39.6932V44.4318C226.956 44.4318 230.962 42.7102 230.962 35.0227V30.6761C230.962 27.0966 232.291 25.6307 236.161 25.6307V19.9034C232.291 19.9034 230.962 18.4375 230.962 14.858V10.5284C230.962 2.84091 226.956 1.11932 220.138 1.11932Z" fill="white"/>
</svg>
